<?xml version="1.0" encoding="utf-8"?>
<!-- Generator: Adobe Illustrator 24.0.2, SVG Export Plug-In . SVG Version: 6.00 Build 0)  -->
<svg version="1.1" id="Capa_1" xmlns="http://www.w3.org/2000/svg" xmlns:xlink="http://www.w3.org/1999/xlink" x="0px" y="0px"
	 viewBox="0 0 183.7 183.7" style="enable-background:new 0 0 183.7 183.7;" xml:space="preserve">
<style type="text/css">
	.st0{clip-path:url(#SVGID_2_);}
	.st1{fill:none;stroke:#FFFFFF;stroke-width:0.5;stroke-linecap:round;stroke-linejoin:round;stroke-dasharray:0,0,0,1.5;}
	.st2{fill:none;stroke:#FFFFFF;stroke-width:0.5;stroke-linecap:round;stroke-linejoin:round;}
	.st3{fill:none;stroke:#FFFFFF00;stroke-miterlimit:10;}
	.st4{fill:#FFFFFF;}
	.st5{clip-path:url(#SVGID_4_);}
	.st6{clip-path:url(#SVGID_6_);}
	.st7{clip-path:url(#SVGID_8_);}
	.st8{clip-path:url(#SVGID_10_);}
	.st9{clip-path:url(#SVGID_12_);}
	.st10{clip-path:url(#SVGID_14_);}
	.st11{fill:none;}
</style>
<g>
	<g>
		<g>
			<defs>
				<rect id="SVGID_1_" x="12.5" y="12.5" width="158.7" height="158.7"/>
			</defs>
			<clipPath id="SVGID_2_">
				<use xlink:href="#SVGID_1_"  style="overflow:visible;"/>
			</clipPath>
			<g class="st0">
				<path class="st1" d="M93.5,161.4c37.6-0.8,67.8-31.4,68.2-69.1"/>
				<path class="st1" d="M161.7,90c-0.8-37.6-31.3-67.9-69-68.3"/>
				<path class="st1" d="M90.5,21.7C52.9,22.5,22.7,53,22.3,90.8"/>
				<path class="st1" d="M22.3,93c0.8,37.6,31.3,67.9,69,68.3"/>
				<path class="st2" d="M92,161.4L92,161.4 M22.3,91.5L22.3,91.5 M92,21.7L92,21.7 M161.7,91.5L161.7,91.5"/>
			</g>
		</g>
	</g>
	<!-- <rect x="12.5" y="12.5" class="st3" width="158.7" height="158.7"/> -->
</g>
<rect x="58" y="37" class="st4" width="52.8" height="0.8"/>
<rect x="109.9" y="37" class="st4" width="0.8" height="81.9"/>
<polygon class="st4" points="110.8,119 92,119 58.8,75.7 77.6,75.7 "/>
<rect x="98.5" y="75.7" class="st4" width="12.3" height="43.3"/>
<polygon class="st4" points="110.8,75.7 92,75.7 58.8,119 77.6,119 "/>
<rect x="102.5" y="106.7" class="st4" width="26.7" height="12.3"/>
<g>
	<g>
		<defs>
			<rect id="SVGID_3_" x="12.5" y="12.5" width="158.7" height="158.7"/>
		</defs>
		<clipPath id="SVGID_4_">
			<use xlink:href="#SVGID_3_"  style="overflow:visible;"/>
		</clipPath>
		<g class="st5">
			<path class="st4" d="M59.7,124.9h2.2c0,0.5-0.2,1-0.6,1.3c-0.3,0.3-0.8,0.5-1.3,0.5s-1-0.2-1.3-0.6s-0.5-0.8-0.5-1.4
				c0-0.3,0-0.5,0.1-0.7s0.2-0.4,0.4-0.6s0.4-0.3,0.6-0.4c0.2-0.1,0.5-0.1,0.7-0.1c0.3,0,0.7,0.1,0.9,0.3s0.5,0.4,0.7,0.7h-0.4
				c-0.2-0.2-0.3-0.4-0.5-0.5s-0.4-0.2-0.7-0.2c-0.4,0-0.8,0.2-1,0.4c-0.3,0.3-0.4,0.7-0.4,1.1s0.1,0.8,0.4,1.1
				c0.3,0.3,0.6,0.4,1.1,0.4c0.3,0,0.6-0.1,0.9-0.3s0.4-0.5,0.5-0.8h-1.8L59.7,124.9L59.7,124.9z"/>
			<path class="st4" d="M62.7,123.4v3.3h-0.3V123h1c0.2,0,0.4,0,0.5,0.1c0.1,0,0.3,0.1,0.3,0.2c0.1,0.1,0.3,0.2,0.3,0.4
				c0.1,0.2,0.1,0.3,0.1,0.5c0,0.3-0.1,0.5-0.3,0.7s-0.4,0.3-0.6,0.3l0.9,1.4h-0.4l-1.1-1.8h0.3c0.2,0,0.4-0.1,0.6-0.2
				c0.1-0.1,0.2-0.3,0.2-0.5c0-0.1,0-0.2-0.1-0.3c0-0.1-0.1-0.2-0.2-0.3c-0.1-0.1-0.2-0.1-0.3-0.1s-0.3,0-0.5,0L62.7,123.4
				L62.7,123.4z"/>
		</g>
	</g>
</g>
<path class="st4" d="M67,125.2l-0.7-1.8l-0.7,1.8H67L67,125.2z M65.1,126.6h-0.4l1.4-3.6h0.4l1.4,3.6h-0.4l-0.4-1.1h-1.6L65.1,126.6
	L65.1,126.6z"/>
<polygon class="st4" points="70.6,126.2 70.6,123 70.9,123 70.9,126.6 70.5,126.6 68.5,123.4 68.6,126.6 68.2,126.6 68.2,123
	68.7,123 "/>
<polygon class="st4" points="73.1,126.6 73.1,123 74.8,123 74.8,123.4 73.4,123.4 73.4,124.6 74.8,124.6 74.8,125 73.4,125
	73.4,126.6 "/>
<g>
	<g>
		<defs>
			<rect id="SVGID_5_" x="12.5" y="12.5" width="158.7" height="158.7"/>
		</defs>
		<clipPath id="SVGID_6_">
			<use xlink:href="#SVGID_5_"  style="overflow:visible;"/>
		</clipPath>
		<g class="st6">
			<path class="st4" d="M75.7,124.8c0,0.4,0.1,0.8,0.4,1.1s0.6,0.4,1.1,0.4s0.8-0.2,1-0.4c0.3-0.3,0.4-0.7,0.4-1.1s-0.1-0.8-0.4-1.1
				c-0.3-0.3-0.6-0.4-1.1-0.4c-0.2,0-0.3,0-0.5,0.1s-0.3,0.1-0.4,0.3c-0.2,0.2-0.3,0.3-0.4,0.5S75.7,124.6,75.7,124.8 M75.3,124.8
				c0-0.3,0.1-0.5,0.1-0.7c0.1-0.2,0.2-0.4,0.4-0.6c0.2-0.2,0.4-0.3,0.6-0.4s0.4-0.1,0.7-0.1s0.5,0,0.7,0.1s0.4,0.2,0.6,0.4
				c0.2,0.2,0.3,0.4,0.4,0.6s0.1,0.5,0.1,0.7s0,0.5-0.1,0.7s-0.2,0.4-0.4,0.6c-0.2,0.2-0.4,0.3-0.6,0.5c-0.2,0.1-0.5,0.2-0.8,0.2
				c-0.5,0-0.9-0.2-1.3-0.6C75.5,125.8,75.3,125.3,75.3,124.8"/>
			<path class="st4" d="M79.8,123.4v3.3h-0.3V123h1c0.2,0,0.4,0,0.5,0.1c0.1,0,0.3,0.1,0.3,0.2c0.1,0.1,0.3,0.2,0.3,0.4
				c0.1,0.2,0.1,0.3,0.1,0.5c0,0.3-0.1,0.5-0.3,0.7s-0.4,0.3-0.6,0.3l0.9,1.4h-0.4l-1.1-1.8h0.3c0.2,0,0.4-0.1,0.6-0.2
				c0.1-0.1,0.2-0.3,0.2-0.5c0-0.1,0-0.2-0.1-0.3c0-0.1-0.1-0.2-0.2-0.3c-0.1-0.1-0.2-0.1-0.3-0.1s-0.3,0-0.5,0L79.8,123.4
				L79.8,123.4z"/>
		</g>
	</g>
</g>
<polygon class="st4" points="82.3,126.6 82.3,123 82.9,123 84.1,126.2 85.3,123 85.9,123 85.9,126.6 85.5,126.6 85.5,123.4
	84.3,126.6 83.9,126.6 82.7,123.4 82.7,126.6 "/>
<path class="st4" d="M88.3,125.2l-0.7-1.8l-0.7,1.8H88.3L88.3,125.2z M86.4,126.6H86l1.4-3.6h0.4l1.4,3.6h-0.4l-0.4-1.1h-1.6
	L86.4,126.6L86.4,126.6z"/>
<polygon class="st4" points="90.1,126.6 89.8,126.6 89.8,123.4 89,123.4 89,123 90.8,123 90.8,123.4 90.1,123.4 "/>
<g>
	<g>
		<defs>
			<rect id="SVGID_7_" x="12.5" y="12.5" width="158.7" height="158.7"/>
		</defs>
		<clipPath id="SVGID_8_">
			<use xlink:href="#SVGID_7_"  style="overflow:visible;"/>
		</clipPath>
		<g class="st7">
			<path class="st4" d="M91.2,124.8c0,0.4,0.1,0.8,0.4,1.1s0.6,0.4,1.1,0.4s0.8-0.2,1-0.4c0.3-0.3,0.4-0.7,0.4-1.1s-0.1-0.8-0.4-1.1
				c-0.3-0.3-0.6-0.4-1.1-0.4c-0.2,0-0.3,0-0.5,0.1s-0.3,0.1-0.4,0.3c-0.2,0.2-0.3,0.3-0.4,0.5C91.3,124.4,91.2,124.6,91.2,124.8
				 M90.8,124.8c0-0.3,0.1-0.5,0.1-0.7c0.1-0.2,0.2-0.4,0.4-0.6c0.2-0.2,0.4-0.3,0.6-0.4s0.4-0.1,0.7-0.1s0.5,0,0.7,0.1
				s0.4,0.2,0.6,0.4c0.2,0.2,0.3,0.4,0.4,0.6s0.1,0.5,0.1,0.7s0,0.5-0.1,0.7s-0.2,0.4-0.4,0.6c-0.2,0.2-0.4,0.3-0.6,0.5
				c-0.2,0.1-0.5,0.2-0.8,0.2c-0.5,0-0.9-0.2-1.3-0.6C91,125.8,90.8,125.3,90.8,124.8"/>
			<path class="st4" d="M96.8,123.4v1.4h0.5c0.3,0,0.5-0.1,0.6-0.2s0.2-0.3,0.2-0.5s-0.1-0.4-0.2-0.5s-0.4-0.2-0.7-0.2L96.8,123.4
				L96.8,123.4z M96.4,123h0.8c0.2,0,0.4,0,0.5,0s0.2,0.1,0.3,0.1c0.2,0.1,0.3,0.2,0.4,0.4c0.1,0.2,0.1,0.3,0.1,0.5s0,0.3-0.1,0.5
				s-0.2,0.3-0.3,0.4c-0.1,0.1-0.2,0.1-0.3,0.1s-0.3,0-0.5,0h-0.5v1.5h-0.3L96.4,123L96.4,123z"/>
			<path class="st4" d="M99.2,124.8c0,0.4,0.1,0.8,0.4,1.1s0.6,0.4,1.1,0.4s0.8-0.2,1-0.4c0.3-0.3,0.4-0.7,0.4-1.1s-0.1-0.8-0.4-1.1
				c-0.3-0.3-0.6-0.4-1.1-0.4c-0.2,0-0.3,0-0.5,0.1s-0.3,0.1-0.4,0.3c-0.2,0.2-0.3,0.3-0.4,0.5S99.2,124.6,99.2,124.8 M98.8,124.8
				c0-0.3,0.1-0.5,0.1-0.7c0.1-0.2,0.2-0.4,0.4-0.6c0.2-0.2,0.4-0.3,0.6-0.4s0.4-0.1,0.7-0.1s0.5,0,0.7,0.1s0.4,0.2,0.6,0.4
				c0.2,0.2,0.3,0.4,0.4,0.6s0.1,0.5,0.1,0.7s0,0.5-0.1,0.7s-0.2,0.4-0.4,0.6c-0.2,0.2-0.4,0.3-0.6,0.5c-0.2,0.1-0.5,0.2-0.8,0.2
				c-0.5,0-0.9-0.2-1.3-0.6C99,125.8,98.8,125.3,98.8,124.8"/>
			<path class="st4" d="M103.3,123.4v3.3H103V123h1c0.2,0,0.4,0,0.5,0.1c0.1,0,0.3,0.1,0.3,0.2c0.1,0.1,0.3,0.2,0.3,0.4
				c0.1,0.2,0.1,0.3,0.1,0.5c0,0.3-0.1,0.5-0.3,0.7s-0.4,0.3-0.6,0.3l0.9,1.4h-0.4l-1.1-1.8h0.3c0.2,0,0.4-0.1,0.6-0.2
				c0.1-0.1,0.2-0.3,0.2-0.5c0-0.1,0-0.2-0.1-0.3c0-0.1-0.1-0.2-0.2-0.3c-0.1-0.1-0.2-0.1-0.3-0.1s-0.3,0-0.5,0L103.3,123.4
				L103.3,123.4z"/>
			<path class="st4" d="M108.7,123.9c-0.2-0.2-0.3-0.4-0.5-0.5s-0.4-0.2-0.7-0.2c-0.4,0-0.7,0.2-1,0.4c-0.3,0.3-0.4,0.7-0.4,1.1
				s0.1,0.8,0.4,1.1s0.6,0.4,1,0.4c0.3,0,0.5-0.1,0.7-0.2s0.4-0.3,0.5-0.5h0.4c-0.2,0.3-0.4,0.6-0.7,0.7c-0.3,0.2-0.6,0.3-0.9,0.3
				c-0.5,0-1-0.2-1.3-0.5s-0.5-0.8-0.5-1.4c0-0.3,0.1-0.5,0.1-0.7c0.1-0.2,0.2-0.4,0.4-0.6c0.2-0.2,0.4-0.3,0.6-0.4s0.4-0.1,0.7-0.1
				c0.4,0,0.7,0.1,1,0.3c0.3,0.2,0.5,0.4,0.7,0.8L108.7,123.9L108.7,123.9z"/>
		</g>
	</g>
</g>
<polygon class="st4" points="110,124.6 111.5,124.6 111.5,125 110,125 110,126.3 111.5,126.3 111.5,126.6 109.6,126.6 109.6,123
	111.5,123 111.5,123.4 110,123.4 "/>
<polygon class="st4" points="113.8,126.6 112.2,126.6 112.2,123 112.5,123 112.5,126.3 113.8,126.3 "/>
<path class="st4" d="M115.3,122.7h-0.2l0.5-0.9h0.4C116,121.8,115.3,122.7,115.3,122.7z M116.1,125.2l-0.7-1.8l-0.7,1.8H116.1
	L116.1,125.2z M114.2,126.6h-0.4l1.4-3.6h0.4l1.4,3.6h-0.4l-0.4-1.1h-1.6L114.2,126.6L114.2,126.6z"/>
<polygon class="st4" points="119.7,126.2 119.6,123 120,123 120,126.6 119.6,126.6 117.6,123.4 117.6,126.6 117.3,126.6 117.3,123
	117.7,123 "/>
<rect x="120.7" y="123" class="st4" width="0.3" height="3.6"/>
<g>
	<g>
		<defs>
			<rect id="SVGID_9_" x="12.5" y="12.5" width="158.7" height="158.7"/>
		</defs>
		<clipPath id="SVGID_10_">
			<use xlink:href="#SVGID_9_"  style="overflow:visible;"/>
		</clipPath>
		<g class="st8">
			<path class="st4" d="M124.6,123.9c-0.2-0.2-0.3-0.4-0.5-0.5s-0.4-0.2-0.7-0.2c-0.4,0-0.7,0.2-1,0.4c-0.3,0.3-0.4,0.7-0.4,1.1
				s0.1,0.8,0.4,1.1s0.6,0.4,1,0.4c0.3,0,0.5-0.1,0.7-0.2s0.4-0.3,0.5-0.5h0.4c-0.2,0.3-0.4,0.6-0.7,0.7c-0.3,0.2-0.6,0.3-0.9,0.3
				c-0.5,0-1-0.2-1.3-0.5s-0.5-0.8-0.5-1.4c0-0.3,0.1-0.5,0.1-0.7c0.1-0.2,0.2-0.4,0.4-0.6c0.2-0.2,0.4-0.3,0.6-0.4s0.4-0.1,0.7-0.1
				c0.4,0,0.7,0.1,1,0.3c0.3,0.2,0.5,0.4,0.7,0.8L124.6,123.9L124.6,123.9z"/>
			<path class="st4" d="M125.7,124.8c0,0.4,0.1,0.8,0.4,1.1s0.6,0.4,1.1,0.4s0.8-0.2,1-0.4c0.3-0.3,0.4-0.7,0.4-1.1
				s-0.1-0.8-0.4-1.1c-0.3-0.3-0.6-0.4-1.1-0.4c-0.2,0-0.3,0-0.5,0.1s-0.3,0.1-0.4,0.3c-0.2,0.2-0.3,0.3-0.4,0.5
				S125.7,124.6,125.7,124.8 M125.3,124.8c0-0.3,0.1-0.5,0.1-0.7c0.1-0.2,0.2-0.4,0.4-0.6c0.2-0.2,0.4-0.3,0.6-0.4s0.4-0.1,0.7-0.1
				s0.5,0,0.7,0.1s0.4,0.2,0.6,0.4c0.2,0.2,0.3,0.4,0.4,0.6c0.1,0.2,0.1,0.5,0.1,0.7s0,0.5-0.1,0.7s-0.2,0.4-0.4,0.6
				s-0.4,0.3-0.6,0.5c-0.2,0.1-0.5,0.2-0.8,0.2c-0.5,0-0.9-0.2-1.3-0.6C125.5,125.8,125.3,125.3,125.3,124.8"/>
		</g>
	</g>
</g>
<rect x="58" y="37" class="st4" width="0.8" height="81.9"/>
<g>
	<g>
		<defs>
			<rect id="SVGID_11_" x="12.5" y="12.5" width="158.7" height="158.7"/>
		</defs>
		<clipPath id="SVGID_12_">
			<use xlink:href="#SVGID_11_"  style="overflow:visible;"/>
		</clipPath>
		<g class="st9">
			<path class="st4" d="M129.2,132.7H128l-3.5,9.8h1.2L129.2,132.7z M125,132.7h-1.2l-3.5,9.8h1.2L125,132.7z M112.4,137.7h0.9
				c0.6,0,1,0.1,1.2,0.4c0.3,0.3,0.4,0.6,0.4,1.1s-0.1,0.8-0.4,1.1s-0.6,0.4-1.1,0.4s-0.8-0.1-1.1-0.4c-0.3-0.3-0.4-0.6-0.4-1h-1.5
				c0,0.8,0.3,1.4,0.8,1.8c0.6,0.5,1.3,0.7,2.1,0.7s1.6-0.2,2.2-0.7s0.8-1.1,0.8-1.9c0-0.5-0.1-0.9-0.4-1.3
				c-0.3-0.4-0.6-0.6-1.1-0.8c0.4-0.2,0.7-0.4,1-0.8c0.3-0.4,0.4-0.7,0.4-1.1c0-0.8-0.3-1.4-0.8-1.9c-0.5-0.4-1.2-0.7-2.1-0.7
				c-0.5,0-1,0.1-1.5,0.3s-0.8,0.5-1,0.9s-0.4,0.8-0.4,1.3h1.5c0-0.4,0.1-0.7,0.4-0.9s0.6-0.4,1-0.4c0.5,0,0.8,0.1,1,0.4
				s0.3,0.6,0.3,1s-0.1,0.8-0.4,1s-0.6,0.4-1.1,0.4h-0.9L112.4,137.7L112.4,137.7z M108,138.8c-0.1,0.6-0.3,1.1-0.6,1.4
				c-0.3,0.3-0.8,0.4-1.4,0.4c-0.7,0-1.2-0.3-1.5-0.8s-0.5-1.3-0.5-2.2v-0.8c0-1,0.2-1.7,0.6-2.2s0.9-0.7,1.6-0.7
				c0.6,0,1,0.1,1.3,0.4c0.3,0.3,0.5,0.8,0.6,1.4h1.6c-0.1-1-0.4-1.7-1.1-2.3c-0.6-0.5-1.4-0.8-2.4-0.8c-0.7,0-1.4,0.2-1.9,0.5
				c-0.6,0.4-1,0.9-1.3,1.5s-0.4,1.4-0.4,2.2v0.8c0,0.8,0.2,1.6,0.5,2.2s0.7,1.1,1.3,1.4c0.5,0.3,1.2,0.5,1.9,0.5
				c1,0,1.8-0.3,2.4-0.8s1-1.3,1.1-2.3L108,138.8L108,138.8z M96.3,140c-0.3,0.4-0.6,0.6-1.1,0.6c-0.6,0-1.1-0.3-1.3-0.8v-3
				c0.3-0.5,0.7-0.8,1.3-0.8c0.5,0,0.9,0.2,1.1,0.6c0.3,0.4,0.4,0.9,0.4,1.6C96.6,139.1,96.5,139.6,96.3,140 M98.1,138.3
				c0-1.1-0.2-1.9-0.7-2.5s-1.1-0.9-1.9-0.9s-1.3,0.3-1.8,0.8l-0.1-0.7h-1.4v9.3h1.5v-3.2c0.4,0.5,1,0.7,1.8,0.7s1.4-0.3,1.9-0.9
				c0.5-0.6,0.7-1.4,0.7-2.5V138.3L98.1,138.3z M89.3,133.8c0.2,0.1,0.3,0.2,0.6,0.2s0.5-0.1,0.6-0.2c0.2-0.1,0.2-0.3,0.2-0.6
				s-0.1-0.4-0.2-0.6c-0.2-0.1-0.4-0.2-0.6-0.2s-0.5,0.1-0.6,0.2c-0.2,0.1-0.2,0.3-0.2,0.6S89.2,133.7,89.3,133.8 M90.7,135h-1.5
				v6.7h1.5V135z M87.5,132.2H86v9.5h1.5V132.2z M82.8,140.4c-0.2,0.1-0.5,0.2-0.9,0.2s-0.7-0.1-1-0.3s-0.4-0.5-0.4-0.8h-1.4
				c0,0.4,0.1,0.8,0.4,1.1c0.2,0.4,0.6,0.6,1,0.8s0.9,0.3,1.5,0.3c0.8,0,1.4-0.2,1.9-0.6s0.7-0.9,0.7-1.5c0-0.4-0.1-0.7-0.2-0.9
				c-0.2-0.3-0.4-0.5-0.7-0.6c-0.3-0.2-0.8-0.3-1.4-0.5s-1-0.3-1.2-0.4c-0.2-0.1-0.3-0.3-0.3-0.5c0-0.3,0.1-0.5,0.3-0.6
				s0.5-0.2,0.8-0.2s0.6,0.1,0.8,0.3c0.2,0.2,0.3,0.4,0.3,0.7h1.5c0-0.6-0.2-1.1-0.7-1.5s-1.1-0.6-1.9-0.6s-1.4,0.2-1.8,0.6
				c-0.5,0.4-0.7,0.9-0.7,1.4c0,0.7,0.4,1.2,1.1,1.6c0.3,0.2,0.8,0.3,1.3,0.4c0.5,0.1,0.9,0.2,1.1,0.4s0.3,0.3,0.3,0.6
				C83.1,140.1,83,140.3,82.8,140.4 M76.4,133.8c0.1,0.1,0.3,0.2,0.6,0.2s0.5-0.1,0.6-0.2c0.2-0.1,0.2-0.3,0.2-0.6s-0.1-0.4-0.2-0.6
				c-0.2-0.1-0.4-0.2-0.6-0.2s-0.5,0.1-0.6,0.2c-0.2,0.1-0.2,0.3-0.2,0.6S76.2,133.7,76.4,133.8 M77.8,135h-1.5v6.7h1.5V135z
				 M72.3,133.4v1.6h-1.1v1.1h1.1v3.8c0,1.3,0.6,1.9,1.7,1.9c0.3,0,0.6-0.1,1-0.1v-1.2c-0.2,0-0.3,0.1-0.5,0.1
				c-0.3,0-0.4-0.1-0.5-0.2s-0.2-0.3-0.2-0.6v-3.7H75V135h-1.2v-1.6H72.3L72.3,133.4z M64.9,135v6.7h1.5v-4.8
				c0.3-0.6,0.7-0.8,1.3-0.8c0.4,0,0.7,0.1,0.9,0.3c0.2,0.2,0.3,0.5,0.3,0.9v4.3h1.5v-4.4c0-1.6-0.7-2.4-2.1-2.4
				c-0.8,0-1.4,0.3-1.9,0.9v-0.8L64.9,135L64.9,135z M59.7,140.3c-0.2-0.2-0.3-0.4-0.3-0.7c0-0.4,0.1-0.6,0.4-0.8s0.7-0.3,1.3-0.3
				h0.8v1.3c-0.1,0.2-0.3,0.4-0.6,0.6s-0.5,0.2-0.8,0.2C60.2,140.6,59.9,140.5,59.7,140.3 M63.7,141.7v-0.1
				c-0.2-0.4-0.3-0.8-0.3-1.4v-3c0-0.7-0.3-1.3-0.7-1.7s-1.1-0.6-1.9-0.6c-0.5,0-1,0.1-1.4,0.3s-0.8,0.4-1,0.8s-0.4,0.7-0.4,1h1.5
				c0-0.3,0.1-0.5,0.3-0.6s0.5-0.3,0.8-0.3c0.4,0,0.7,0.1,0.9,0.3s0.3,0.5,0.3,0.8v0.4H61c-1,0-1.7,0.2-2.3,0.6s-0.8,0.9-0.8,1.6
				c0,0.6,0.2,1,0.6,1.4c0.4,0.4,1,0.6,1.6,0.6s1.3-0.3,1.8-0.8c0,0.3,0.1,0.5,0.2,0.6L63.7,141.7L63.7,141.7z"/>
		</g>
	</g>
</g>
<g>
	<g>
		<defs>
			<rect id="SVGID_13_" width="183.7" height="183.7"/>
		</defs>
		<clipPath id="SVGID_14_">
			<use xlink:href="#SVGID_13_"  style="overflow:visible;"/>
		</clipPath>
		<g class="st10">
			<path class="st11" d="M162.7,168.7v15 M162.7,15V0 M21,168.7v15 M21,15V0 M168.7,162.7h15 M15,162.7H0 M168.7,21h15 M15,21H0"/>
		</g>
	</g>
</g>
</svg>
