<?xml version="1.0" encoding="UTF-8"?>
<svg id="Capa_2" data-name="Capa 2" xmlns="http://www.w3.org/2000/svg" viewBox="0 0 49.47 49.47">
  <defs>
    <style>
      .cls-1 {
        fill: #fff;
      }

      .cls-2 {
        fill: #252528;
      }
    </style>
  </defs>
  <g id="Capa_1-2" data-name="Capa 1">
    <circle class="cls-1" cx="24.74" cy="24.74" r="24.74"/>
    <g id="Capa_1-3" data-name="Capa 1">
      <g id="SVGRepo_iconCarrier" data-name="SVGRepo iconCarrier">
        <g id="icons">
          <g id="ui-gambling-website-lined-icnos-casinoshunter">
            <g id="square-filled">
              <path id="right-arrow" class="cls-2" d="m27.75,20.12l4.19,4.14h.04c.09.09.13.17.13.26v.04c0,.09-.04.17-.13.26h0l-4.19,4.14c-.17.17-.39.17-.57,0-.17-.17-.17-.39,0-.57l3.58-3.53h-12.52c-.22,0-.39-.17-.39-.39s.17-.39.39-.39h12.43l-3.49-3.45c-.17-.17-.17-.39,0-.57.13-.09.39-.09.52.04Zm3.97,4.4l-4.23,4.19,4.19-4.14h-.04l-.04-.04h.13Z"/>
            </g>
          </g>
        </g>
      </g>
    </g>
  </g>
</svg>