<?xml version="1.0" encoding="utf-8"?>
<!-- Generator: Adobe Illustrator 24.0.2, SVG Export Plug-In . SVG Version: 6.00 Build 0)  -->
<svg version="1.1" id="Capa_1" xmlns="http://www.w3.org/2000/svg" xmlns:xlink="http://www.w3.org/1999/xlink" x="0px" y="0px"
	 viewBox="0 0 721.5 1132" style="enable-background:new 0 0 721.5 1132;" xml:space="preserve">
<style type="text/css">
	.st0{enable-background:new    ;}
	.st1{fill:#FFFFFF;}
	.st2{clip-path:url(#SVGID_2_);}
	.st3{fill:none;stroke:#FFFFFF;stroke-width:5;}
	.st4{clip-path:url(#SVGID_4_);}
	.st5{clip-path:url(#SVGID_6_);}
	.st6{clip-path:url(#SVGID_8_);}
</style>
<title>Recurso 3</title>
<g id="Capa_2_1_">
	<g id="Capa_1-2">
		<g class="st0">
			<path class="st1" d="M88.8,204.9H66.4V63.4h22.4V204.9z"/>
		</g>
		<g class="st0">
			<path class="st1" d="M163.9,204.9c-1-1.9-1.8-5-2.6-9.3c-7.1,7.4-15.8,11.1-26.2,11.1c-10,0-18.2-2.9-24.5-8.6
				c-6.3-5.7-9.5-12.8-9.5-21.2c0-10.6,3.9-18.8,11.8-24.5c7.9-5.7,19.2-8.5,33.9-8.5h13.7v-6.5c0-5.2-1.4-9.3-4.3-12.4
				c-2.9-3.1-7.3-4.7-13.2-4.7c-5.1,0-9.3,1.3-12.5,3.8c-3.3,2.5-4.9,5.8-4.9,9.7h-22.4c0-5.5,1.8-10.6,5.4-15.3
				c3.6-4.8,8.6-8.5,14.8-11.2c6.2-2.7,13.2-4.1,20.9-4.1c11.7,0,21,2.9,27.9,8.8c6.9,5.9,10.5,14.1,10.7,24.7v45
				c0,9,1.3,16.1,3.8,21.5v1.6H163.9z M139.3,188.7c4.4,0,8.6-1.1,12.5-3.2c3.9-2.1,6.8-5,8.8-8.7v-18.8h-12.1
				c-8.3,0-14.5,1.4-18.7,4.3c-4.2,2.9-6.3,7-6.3,12.3c0,4.3,1.4,7.7,4.3,10.3C130.7,187.5,134.5,188.7,139.3,188.7z"/>
		</g>
		<g class="st0">
			<path class="st1" d="M250.5,125.6c-2.9-0.5-6-0.7-9.1-0.7c-10.3,0-17.2,3.9-20.7,11.8v68.2h-22.4v-99.7h21.4l0.6,11.1
				c5.4-8.7,12.9-13,22.5-13c3.2,0,5.8,0.4,7.9,1.3L250.5,125.6z"/>
		</g>
		<g class="st0">
			<path class="st1" d="M252.9,154.3c0-15.5,3.6-27.8,10.9-37.1c7.3-9.2,16.9-13.9,29-13.9c11.4,0,20.3,4,26.8,11.9l1-10h20.2v96.6
				c0,13.1-4.1,23.4-12.2,31c-8.1,7.6-19.1,11.3-32.9,11.3c-7.3,0-14.4-1.5-21.4-4.6c-7-3-12.3-7-15.9-11.9l10.6-13.4
				c6.9,8.2,15.4,12.3,25.4,12.3c7.4,0,13.3-2,17.6-6c4.3-4,6.4-9.9,6.4-17.7v-6.7c-6.4,7.2-15,10.8-25.8,10.8
				c-11.7,0-21.2-4.6-28.6-13.9C256.6,183.5,252.9,170.7,252.9,154.3z M275.2,156.2c0,10,2,17.9,6.1,23.6c4.1,5.7,9.7,8.6,17,8.6
				c9,0,15.7-3.9,20.1-11.6V133c-4.2-7.6-10.9-11.3-19.9-11.3c-7.4,0-13.1,2.9-17.2,8.8C277.3,136.3,275.2,144.9,275.2,156.2z"/>
		</g>
		<g class="st0">
			<path class="st1" d="M399.6,206.7c-14.2,0-25.7-4.5-34.5-13.4c-8.8-8.9-13.2-20.8-13.2-35.7v-2.8c0-9.9,1.9-18.8,5.8-26.7
				c3.8-7.8,9.2-13.9,16.2-18.3c6.9-4.4,14.7-6.5,23.2-6.5c13.6,0,24.1,4.3,31.5,13c7.4,8.7,11.1,20.9,11.1,36.8v9h-65.1
				c0.7,8.2,3.4,14.7,8.2,19.5c4.8,4.8,10.9,7.2,18.2,7.2c10.3,0,18.6-4.1,25.1-12.4l12.1,11.5c-4,6-9.3,10.6-16,13.9
				C415.3,205.1,407.9,206.7,399.6,206.7z M396.9,121.3c-6.1,0-11.1,2.2-14.9,6.4c-3.8,4.3-6.2,10.3-7.2,18h42.6v-1.7
				c-0.5-7.5-2.5-13.2-6-17C408,123.2,403.1,121.3,396.9,121.3z"/>
		</g>
		<g class="st0">
			<path class="st1" d="M72.9,393.5v-83.1H57.7v-16.6h15.2v-9.1c0-11.1,3.1-19.6,9.2-25.6c6.1-6,14.7-9,25.8-9
				c3.9,0,8.1,0.6,12.5,1.7l-0.6,17.5c-2.5-0.5-5.3-0.7-8.6-0.7c-10.7,0-16,5.5-16,16.5v8.8h20.3v16.6H95.3v83.1H72.9z"/>
		</g>
		<g class="st0">
			<path class="st1" d="M116.8,342.8c0-9.8,1.9-18.6,5.8-26.4c3.9-7.8,9.3-13.8,16.3-18.1c7-4.2,15-6.3,24.1-6.3
				c13.4,0,24.4,4.3,32.7,13c8.4,8.7,12.9,20.1,13.6,34.5l0.1,5.3c0,9.8-1.9,18.6-5.7,26.3c-3.8,7.7-9.2,13.7-16.2,18
				c-7,4.2-15.2,6.4-24.4,6.4c-14.1,0-25.3-4.7-33.8-14c-8.4-9.4-12.7-21.8-12.7-37.4V342.8z M139.1,344.7c0,10.3,2.1,18.3,6.4,24.1
				c4.2,5.8,10.1,8.7,17.7,8.7s13.4-2.9,17.6-8.8c4.2-5.9,6.3-14.5,6.3-25.9c0-10.1-2.2-18.1-6.5-24c-4.3-5.9-10.2-8.8-17.6-8.8
				c-7.3,0-13.1,2.9-17.4,8.7C141.3,324.5,139.1,333.2,139.1,344.7z"/>
		</g>
		<g class="st0">
			<path class="st1" d="M272.8,314.3c-2.9-0.5-6-0.7-9.1-0.7c-10.3,0-17.2,3.9-20.7,11.8v68.2h-22.4v-99.7h21.4l0.6,11.1
				c5.4-8.7,12.9-13,22.5-13c3.2,0,5.8,0.4,7.9,1.3L272.8,314.3z"/>
		</g>
		<g class="st0">
			<path class="st1" d="M300.4,293.9l0.6,10.4c7-8.2,16.6-12.3,28.7-12.3c13.3,0,22.4,5.1,27.4,15.3c7.2-10.2,17.4-15.3,30.6-15.3
				c11,0,19.2,3,24.5,9.1c5.4,6.1,8.1,15,8.2,26.9v65.5h-22.4v-64.8c0-6.3-1.4-11-4.1-13.9c-2.8-2.9-7.3-4.4-13.7-4.4
				c-5.1,0-9.3,1.4-12.5,4.1c-3.2,2.7-5.5,6.3-6.8,10.7l0.1,68.3h-22.4v-65.6c-0.3-11.7-6.3-17.6-18-17.6c-9,0-15.3,3.7-19.1,11
				v72.2h-22.4v-99.7H300.4z"/>
		</g>
		<g class="st0">
			<path class="st1" d="M494.4,393.5c-1-1.9-1.8-5-2.6-9.3c-7.1,7.4-15.8,11.1-26.2,11.1c-10,0-18.2-2.9-24.5-8.6
				c-6.3-5.7-9.5-12.8-9.5-21.2c0-10.6,3.9-18.8,11.8-24.5c7.9-5.7,19.2-8.5,33.9-8.5h13.7v-6.5c0-5.2-1.4-9.3-4.3-12.4
				c-2.9-3.1-7.3-4.7-13.2-4.7c-5.1,0-9.3,1.3-12.5,3.8c-3.3,2.5-4.9,5.8-4.9,9.7h-22.4c0-5.5,1.8-10.6,5.4-15.3
				c3.6-4.8,8.6-8.5,14.8-11.2c6.2-2.7,13.2-4.1,20.9-4.1c11.7,0,21,2.9,27.9,8.8c6.9,5.9,10.5,14.1,10.7,24.7v45
				c0,9,1.3,16.1,3.8,21.5v1.6H494.4z M469.8,377.4c4.4,0,8.6-1.1,12.5-3.2c3.9-2.1,6.8-5,8.8-8.7v-18.8H479
				c-8.3,0-14.5,1.4-18.7,4.3c-4.2,2.9-6.3,7-6.3,12.3c0,4.3,1.4,7.7,4.3,10.3C461.2,376.1,465,377.4,469.8,377.4z"/>
		</g>
		<g class="st0">
			<path class="st1" d="M556.9,269.6v24.2h17.6v16.6h-17.6v55.6c0,3.8,0.8,6.6,2.3,8.2c1.5,1.7,4.2,2.5,8.1,2.5
				c2.6,0,5.2-0.3,7.8-0.9v17.3c-5.1,1.4-10,2.1-14.7,2.1c-17.2,0-25.8-9.5-25.8-28.5v-56.5h-16.4v-16.6h16.4v-24.2H556.9z"/>
		</g>
		<g class="st0">
			<path class="st1" d="M71.3,593.7H53.7l52.8-145.6h17.6L71.3,593.7z"/>
		</g>
		<g class="st0">
			<path class="st1" d="M122.7,593.7h-17.6l52.8-145.6h17.6L122.7,593.7z"/>
		</g>
		<g>
			<defs>
				<rect id="SVGID_1_" x="-2.2" y="-2.2" width="725.9" height="1133.8"/>
			</defs>
			<clipPath id="SVGID_2_">
				<use xlink:href="#SVGID_1_"  style="overflow:visible;"/>
			</clipPath>
			<g class="st2">
				<line class="st3" x1="0" y1="2.5" x2="721.5" y2="2.5"/>
			</g>
		</g>
		<g>
			<defs>
				<rect id="SVGID_3_" x="-2.2" y="-2.2" width="725.9" height="1133.8"/>
			</defs>
			<clipPath id="SVGID_4_">
				<use xlink:href="#SVGID_3_"  style="overflow:visible;"/>
			</clipPath>
			<g class="st4">
				<line class="st3" x1="0.2" y1="1129.5" x2="368.8" y2="1129.5"/>
			</g>
		</g>
		<g>
			<defs>
				<rect id="SVGID_5_" x="-2.2" y="-2.2" width="725.9" height="1133.8"/>
			</defs>
			<clipPath id="SVGID_6_">
				<use xlink:href="#SVGID_5_"  style="overflow:visible;"/>
			</clipPath>
			<g class="st5">
				<line class="st3" x1="719" y1="2.5" x2="719" y2="776.7"/>
			</g>
		</g>
		<g>
			<defs>
				<rect id="SVGID_7_" x="-2.2" y="-2.2" width="725.9" height="1133.8"/>
			</defs>
			<clipPath id="SVGID_8_">
				<use xlink:href="#SVGID_7_"  style="overflow:visible;"/>
			</clipPath>
			<g class="st6">
				<line class="st3" x1="2.5" y1="2.5" x2="2.5" y2="1131.6"/>
			</g>
		</g>
	</g>
</g>
</svg>
