{
    "asset" : {
        "generator" : "Khronos glTF Blender I/O v3.4.49",
        "version" : "2.0"
    },
    "scene" : 0,
    "scenes" : [
        {
            "name" : "Scene",
            "nodes" : [
                0
            ]
        }
    ],
    "nodes" : [
        {
            "mesh" : 0,
            "name" : "XL Bath Encimera regruesada 40"
        }
    ],
    "materials" : [
        {
            "doubleSided" : true,
            "name" : "Material 01",
            "pbrMetallicRoughness" : {
                "metallicFactor" : 0,
                "roughnessFactor" : 0.5
            }
        }
    ],
    "meshes" : [
        {
            "name" : "Malla",
            "primitives" : [
                {
                    "attributes" : {
                        "POSITION" : 0,
                        "TEXCOORD_0" : 1,
                        "NORMAL" : 2
                    },
                    "indices" : 3,
                    "material" : 0
                }
            ]
        }
    ],
    "accessors" : [
        {
            "bufferView" : 0,
            "componentType" : 5126,
            "count" : 652,
            "max" : [
                0.5999875068664551,
                0.09045691043138504,
                0.2397174835205078
            ],
            "min" : [
                -0.6000124216079712,
                -0.0005430951714515686,
                -0.2222825139760971
            ],
            "type" : "VEC3"
        },
        {
            "bufferView" : 1,
            "componentType" : 5126,
            "count" : 652,
            "type" : "VEC2"
        },
        {
            "bufferView" : 2,
            "componentType" : 5126,
            "count" : 652,
            "type" : "VEC3"
        },
        {
            "bufferView" : 3,
            "componentType" : 5123,
            "count" : 1326,
            "type" : "SCALAR"
        }
    ],
    "bufferViews" : [
        {
            "buffer" : 0,
            "byteLength" : 7824,
            "byteOffset" : 0,
            "target" : 34962
        },
        {
            "buffer" : 0,
            "byteLength" : 5216,
            "byteOffset" : 7824,
            "target" : 34962
        },
        {
            "buffer" : 0,
            "byteLength" : 7824,
            "byteOffset" : 13040,
            "target" : 34962
        },
        {
            "buffer" : 0,
            "byteLength" : 2652,
            "byteOffset" : 20864,
            "target" : 34963
        }
    ],
    "buffers" : [
        {
            "byteLength" : 23516,
            "uri" : "data:application/octet-stream;base64,"
        }
    ]
}
