<svg xmlns="http://www.w3.org/2000/svg" viewBox="0 0 308.31 217.86"><defs><style>.cls-1,.cls-2,.cls-4,.cls-6{fill:none;}.cls-1,.cls-2,.cls-4,.cls-5,.cls-6{stroke:#fff;stroke-miterlimit:10;}.cls-1,.cls-4{stroke-width:0.75px;}.cls-2{stroke-width:0.5px;}.cls-3,.cls-5{fill:#fff;}.cls-4,.cls-6{stroke-linecap:square;}.cls-5{font-size:14px;font-family:Roboto-Medium, Roboto;font-weight:500;}.cls-6{stroke-width:0.25px;}</style></defs><title>Icono Medidas Plato</title><g id="Capa_2" data-name="Capa 2"><g id="Capa_1-2" data-name="Capa 1"><rect class="cls-1" x="0.38" y="37.81" width="307.56" height="148.44"/><rect class="cls-1" x="76.38" y="101.04" width="21.33" height="21.73" rx="1.6"/><line class="cls-2" x1="97.71" y1="101.04" x2="307.93" y2="37.81"/><line class="cls-2" x1="97.3" y1="122.22" x2="307.93" y2="186.25"/><line class="cls-2" x1="76.71" y1="122.14" x2="0.38" y2="186.25"/><line class="cls-2" x1="0.38" y1="37.81" x2="76.72" y2="101.66"/><line class="cls-3" x1="0.38" y1="20.48" x2="307.93" y2="20.48"/><line class="cls-4" x1="2.61" y1="20.48" x2="305.69" y2="20.48"/><polygon class="cls-3" points="3.67 21.86 3.08 20.48 3.67 19.09 0.38 20.48 3.67 21.86"/><polygon class="cls-3" points="304.64 21.86 305.23 20.48 304.64 19.09 307.93 20.48 304.64 21.86"/><text class="cls-5" transform="translate(143.85 12.48)">A</text><line class="cls-3" x1="0.37" y1="214.74" x2="87.04" y2="214.74"/><line class="cls-4" x1="2.61" y1="214.74" x2="84.8" y2="214.74"/><polygon class="cls-3" points="3.67 216.13 3.08 214.74 3.67 213.35 0.38 214.74 3.67 216.13"/><polygon class="cls-3" points="83.75 216.13 84.34 214.74 83.75 213.35 87.04 214.74 83.75 216.13"/><text class="cls-5" transform="translate(38.54 206.74)">B</text><line class="cls-6" x1="87.04" y1="111.9" x2="87.04" y2="217.74"/><line class="cls-6" x1="0.38" y1="186.25" x2="0.38" y2="217.74"/><line class="cls-6" x1="0.38" y1="37.81" x2="0.38" y2="17.59"/><line class="cls-6" x1="307.93" y1="37.81" x2="307.93" y2="17.59"/></g></g></svg>